<mxfile host="app.diagrams.net" modified="2023-05-21T09:21:24.340Z" agent="Mozilla/5.0 (Windows NT 10.0; Win64; x64) AppleWebKit/537.36 (KHTML, like Gecko) Chrome/113.0.0.0 Safari/537.36" etag="xB4XjUkny2FXOZGWnjNG" version="21.3.2" type="device">
  <diagram name="Page-1" id="2YBvvXClWsGukQMizWep">
    <mxGraphModel dx="1900" dy="581" grid="1" gridSize="10" guides="1" tooltips="1" connect="1" arrows="1" fold="1" page="1" pageScale="1" pageWidth="850" pageHeight="1100" math="0" shadow="0">
      <root>
        <mxCell id="0" />
        <mxCell id="1" parent="0" />
        <mxCell id="aM9ryv3xv72pqoxQDRHE-1" value="c:Controller" style="shape=umlLifeline;perimeter=lifelinePerimeter;whiteSpace=wrap;html=1;container=0;dropTarget=0;collapsible=0;recursiveResize=0;outlineConnect=0;portConstraint=eastwest;newEdgeStyle={&quot;edgeStyle&quot;:&quot;elbowEdgeStyle&quot;,&quot;elbow&quot;:&quot;vertical&quot;,&quot;curved&quot;:0,&quot;rounded&quot;:0};" parent="1" vertex="1">
          <mxGeometry x="100" y="40" width="100" height="490" as="geometry" />
        </mxCell>
        <mxCell id="aM9ryv3xv72pqoxQDRHE-2" value="" style="html=1;points=[];perimeter=orthogonalPerimeter;outlineConnect=0;targetShapes=umlLifeline;portConstraint=eastwest;newEdgeStyle={&quot;edgeStyle&quot;:&quot;elbowEdgeStyle&quot;,&quot;elbow&quot;:&quot;vertical&quot;,&quot;curved&quot;:0,&quot;rounded&quot;:0};" parent="aM9ryv3xv72pqoxQDRHE-1" vertex="1">
          <mxGeometry x="45" y="50" width="10" height="410" as="geometry" />
        </mxCell>
        <mxCell id="aM9ryv3xv72pqoxQDRHE-3" value="gameLoop" style="html=1;verticalAlign=bottom;startArrow=oval;endArrow=block;startSize=8;edgeStyle=elbowEdgeStyle;elbow=vertical;curved=0;rounded=0;" parent="aM9ryv3xv72pqoxQDRHE-1" target="aM9ryv3xv72pqoxQDRHE-2" edge="1">
          <mxGeometry relative="1" as="geometry">
            <mxPoint x="-80" y="60" as="sourcePoint" />
            <Array as="points">
              <mxPoint x="-17" y="60" />
            </Array>
          </mxGeometry>
        </mxCell>
        <mxCell id="aM9ryv3xv72pqoxQDRHE-5" value="g:GameView" style="shape=umlLifeline;perimeter=lifelinePerimeter;whiteSpace=wrap;html=1;container=0;dropTarget=0;collapsible=0;recursiveResize=0;outlineConnect=0;portConstraint=eastwest;newEdgeStyle={&quot;edgeStyle&quot;:&quot;elbowEdgeStyle&quot;,&quot;elbow&quot;:&quot;vertical&quot;,&quot;curved&quot;:0,&quot;rounded&quot;:0};" parent="1" vertex="1">
          <mxGeometry x="240" y="40" width="100" height="300" as="geometry" />
        </mxCell>
        <mxCell id="aM9ryv3xv72pqoxQDRHE-6" value="" style="html=1;points=[];perimeter=orthogonalPerimeter;outlineConnect=0;targetShapes=umlLifeline;portConstraint=eastwest;newEdgeStyle={&quot;edgeStyle&quot;:&quot;elbowEdgeStyle&quot;,&quot;elbow&quot;:&quot;vertical&quot;,&quot;curved&quot;:0,&quot;rounded&quot;:0};" parent="aM9ryv3xv72pqoxQDRHE-5" vertex="1">
          <mxGeometry x="45" y="100" width="10" height="60" as="geometry" />
        </mxCell>
        <mxCell id="aM9ryv3xv72pqoxQDRHE-7" value="draw" style="html=1;verticalAlign=bottom;endArrow=block;edgeStyle=elbowEdgeStyle;elbow=vertical;curved=0;rounded=0;" parent="1" source="aM9ryv3xv72pqoxQDRHE-2" target="aM9ryv3xv72pqoxQDRHE-6" edge="1">
          <mxGeometry relative="1" as="geometry">
            <mxPoint x="195" y="130" as="sourcePoint" />
            <Array as="points">
              <mxPoint x="190" y="150" />
              <mxPoint x="230" y="160" />
              <mxPoint x="190" y="130" />
            </Array>
          </mxGeometry>
        </mxCell>
        <mxCell id="aM9ryv3xv72pqoxQDRHE-8" value="" style="html=1;verticalAlign=bottom;endArrow=open;dashed=1;endSize=8;edgeStyle=elbowEdgeStyle;elbow=vertical;curved=0;rounded=0;" parent="1" source="aM9ryv3xv72pqoxQDRHE-6" target="aM9ryv3xv72pqoxQDRHE-2" edge="1">
          <mxGeometry relative="1" as="geometry">
            <mxPoint x="195" y="205" as="targetPoint" />
            <Array as="points">
              <mxPoint x="210" y="160" />
              <mxPoint x="180" y="180" />
            </Array>
          </mxGeometry>
        </mxCell>
        <mxCell id="RtVYyTiSSM95ih-wjU4m-1" value="alt" style="shape=umlFrame;whiteSpace=wrap;html=1;pointerEvents=0;" parent="1" vertex="1">
          <mxGeometry x="-70" y="130" width="860" height="310" as="geometry" />
        </mxCell>
        <mxCell id="RtVYyTiSSM95ih-wjU4m-2" value="updateanddrawloop" style="shape=umlFrame;whiteSpace=wrap;html=1;pointerEvents=0;width=180;height=20;" parent="1" vertex="1">
          <mxGeometry x="-90" width="940" height="540" as="geometry" />
        </mxCell>
        <mxCell id="RtVYyTiSSM95ih-wjU4m-3" value="" style="endArrow=none;dashed=1;html=1;rounded=0;exitX=0;exitY=0.255;exitDx=0;exitDy=0;exitPerimeter=0;" parent="1" source="RtVYyTiSSM95ih-wjU4m-1" edge="1">
          <mxGeometry width="50" height="50" relative="1" as="geometry">
            <mxPoint x="-10" y="199" as="sourcePoint" />
            <mxPoint x="800" y="210" as="targetPoint" />
            <Array as="points" />
          </mxGeometry>
        </mxCell>
        <mxCell id="RtVYyTiSSM95ih-wjU4m-4" value="[windowOption==game]" style="text;html=1;strokeColor=none;fillColor=none;align=center;verticalAlign=middle;whiteSpace=wrap;rounded=0;" parent="1" vertex="1">
          <mxGeometry x="50" y="165" width="50" height="30" as="geometry" />
        </mxCell>
        <mxCell id="RtVYyTiSSM95ih-wjU4m-5" value="e:EndGameView" style="shape=umlLifeline;perimeter=lifelinePerimeter;whiteSpace=wrap;html=1;container=0;dropTarget=0;collapsible=0;recursiveResize=0;outlineConnect=0;portConstraint=eastwest;newEdgeStyle={&quot;edgeStyle&quot;:&quot;elbowEdgeStyle&quot;,&quot;elbow&quot;:&quot;vertical&quot;,&quot;curved&quot;:0,&quot;rounded&quot;:0};" parent="1" vertex="1">
          <mxGeometry x="360" y="40" width="100" height="300" as="geometry" />
        </mxCell>
        <mxCell id="RtVYyTiSSM95ih-wjU4m-6" value="" style="html=1;points=[];perimeter=orthogonalPerimeter;outlineConnect=0;targetShapes=umlLifeline;portConstraint=eastwest;newEdgeStyle={&quot;edgeStyle&quot;:&quot;elbowEdgeStyle&quot;,&quot;elbow&quot;:&quot;vertical&quot;,&quot;curved&quot;:0,&quot;rounded&quot;:0};" parent="RtVYyTiSSM95ih-wjU4m-5" vertex="1">
          <mxGeometry x="45" y="175" width="10" height="65" as="geometry" />
        </mxCell>
        <mxCell id="RtVYyTiSSM95ih-wjU4m-7" value="draw" style="html=1;verticalAlign=bottom;endArrow=block;edgeStyle=elbowEdgeStyle;elbow=vertical;curved=0;rounded=0;" parent="1" target="RtVYyTiSSM95ih-wjU4m-6" edge="1">
          <mxGeometry x="0.0403" relative="1" as="geometry">
            <mxPoint x="150" y="230" as="sourcePoint" />
            <Array as="points">
              <mxPoint x="370" y="230" />
              <mxPoint x="330" y="220" />
              <mxPoint x="225" y="214.5" />
              <mxPoint x="185" y="184.5" />
            </Array>
            <mxPoint x="280" y="214.5" as="targetPoint" />
            <mxPoint x="1" as="offset" />
          </mxGeometry>
        </mxCell>
        <mxCell id="RtVYyTiSSM95ih-wjU4m-8" value="" style="html=1;verticalAlign=bottom;endArrow=open;dashed=1;endSize=8;edgeStyle=elbowEdgeStyle;elbow=vertical;curved=0;rounded=0;" parent="1" source="RtVYyTiSSM95ih-wjU4m-5" edge="1">
          <mxGeometry relative="1" as="geometry">
            <mxPoint x="150" y="240" as="targetPoint" />
            <Array as="points">
              <mxPoint x="175" y="240" />
            </Array>
            <mxPoint x="280" y="240" as="sourcePoint" />
          </mxGeometry>
        </mxCell>
        <mxCell id="RtVYyTiSSM95ih-wjU4m-9" value="[windowOption==end]" style="text;html=1;strokeColor=none;fillColor=none;align=center;verticalAlign=middle;whiteSpace=wrap;rounded=0;" parent="1" vertex="1">
          <mxGeometry x="40" y="225" width="60" height="30" as="geometry" />
        </mxCell>
        <mxCell id="RtVYyTiSSM95ih-wjU4m-10" value="" style="endArrow=none;dashed=1;html=1;rounded=0;exitX=-0.005;exitY=0.515;exitDx=0;exitDy=0;exitPerimeter=0;" parent="1" source="RtVYyTiSSM95ih-wjU4m-1" edge="1">
          <mxGeometry width="50" height="50" relative="1" as="geometry">
            <mxPoint x="-10" y="290" as="sourcePoint" />
            <mxPoint x="790" y="290" as="targetPoint" />
            <Array as="points" />
          </mxGeometry>
        </mxCell>
        <mxCell id="RtVYyTiSSM95ih-wjU4m-11" value="n:NewGameView" style="shape=umlLifeline;perimeter=lifelinePerimeter;whiteSpace=wrap;html=1;container=0;dropTarget=0;collapsible=0;recursiveResize=0;outlineConnect=0;portConstraint=eastwest;newEdgeStyle={&quot;edgeStyle&quot;:&quot;elbowEdgeStyle&quot;,&quot;elbow&quot;:&quot;vertical&quot;,&quot;curved&quot;:0,&quot;rounded&quot;:0};" parent="1" vertex="1">
          <mxGeometry x="470" y="40" width="100" height="320" as="geometry" />
        </mxCell>
        <mxCell id="RtVYyTiSSM95ih-wjU4m-12" value="" style="html=1;points=[];perimeter=orthogonalPerimeter;outlineConnect=0;targetShapes=umlLifeline;portConstraint=eastwest;newEdgeStyle={&quot;edgeStyle&quot;:&quot;elbowEdgeStyle&quot;,&quot;elbow&quot;:&quot;vertical&quot;,&quot;curved&quot;:0,&quot;rounded&quot;:0};" parent="RtVYyTiSSM95ih-wjU4m-11" vertex="1">
          <mxGeometry x="45" y="260" width="10" height="60" as="geometry" />
        </mxCell>
        <mxCell id="RtVYyTiSSM95ih-wjU4m-13" value="draw" style="html=1;verticalAlign=bottom;endArrow=block;edgeStyle=elbowEdgeStyle;elbow=vertical;curved=0;rounded=0;" parent="1" target="RtVYyTiSSM95ih-wjU4m-12" edge="1">
          <mxGeometry x="0.0403" relative="1" as="geometry">
            <mxPoint x="150" y="310" as="sourcePoint" />
            <Array as="points">
              <mxPoint x="310" y="310" />
              <mxPoint x="350" y="300" />
              <mxPoint x="330" y="290" />
              <mxPoint x="225" y="284.5" />
              <mxPoint x="185" y="254.5" />
            </Array>
            <mxPoint x="405" y="290" as="targetPoint" />
            <mxPoint x="1" as="offset" />
          </mxGeometry>
        </mxCell>
        <mxCell id="RtVYyTiSSM95ih-wjU4m-14" value="" style="html=1;verticalAlign=bottom;endArrow=open;dashed=1;endSize=8;edgeStyle=elbowEdgeStyle;elbow=vertical;curved=0;rounded=0;" parent="1" source="RtVYyTiSSM95ih-wjU4m-12" edge="1">
          <mxGeometry relative="1" as="geometry">
            <mxPoint x="150" y="320" as="targetPoint" />
            <Array as="points">
              <mxPoint x="330" y="320" />
              <mxPoint x="350" y="330" />
              <mxPoint x="175" y="310" />
            </Array>
            <mxPoint x="410" y="310" as="sourcePoint" />
          </mxGeometry>
        </mxCell>
        <mxCell id="RtVYyTiSSM95ih-wjU4m-15" value="[windowOption==newgame]" style="text;html=1;strokeColor=none;fillColor=none;align=center;verticalAlign=middle;whiteSpace=wrap;rounded=0;" parent="1" vertex="1">
          <mxGeometry x="40" y="300" width="60" height="30" as="geometry" />
        </mxCell>
        <mxCell id="RtVYyTiSSM95ih-wjU4m-17" value="" style="endArrow=none;dashed=1;html=1;rounded=0;entryX=1.002;entryY=0.768;entryDx=0;entryDy=0;entryPerimeter=0;exitX=0.001;exitY=0.771;exitDx=0;exitDy=0;exitPerimeter=0;" parent="1" source="RtVYyTiSSM95ih-wjU4m-1" target="RtVYyTiSSM95ih-wjU4m-1" edge="1">
          <mxGeometry width="50" height="50" relative="1" as="geometry">
            <mxPoint x="-10" y="350" as="sourcePoint" />
            <mxPoint x="450" y="170" as="targetPoint" />
          </mxGeometry>
        </mxCell>
        <mxCell id="RtVYyTiSSM95ih-wjU4m-18" value="m:MenuView" style="shape=umlLifeline;perimeter=lifelinePerimeter;whiteSpace=wrap;html=1;container=0;dropTarget=0;collapsible=0;recursiveResize=0;outlineConnect=0;portConstraint=eastwest;newEdgeStyle={&quot;edgeStyle&quot;:&quot;elbowEdgeStyle&quot;,&quot;elbow&quot;:&quot;vertical&quot;,&quot;curved&quot;:0,&quot;rounded&quot;:0};" parent="1" vertex="1">
          <mxGeometry x="610" y="40" width="100" height="400" as="geometry" />
        </mxCell>
        <mxCell id="RtVYyTiSSM95ih-wjU4m-19" value="" style="html=1;points=[];perimeter=orthogonalPerimeter;outlineConnect=0;targetShapes=umlLifeline;portConstraint=eastwest;newEdgeStyle={&quot;edgeStyle&quot;:&quot;elbowEdgeStyle&quot;,&quot;elbow&quot;:&quot;vertical&quot;,&quot;curved&quot;:0,&quot;rounded&quot;:0};" parent="RtVYyTiSSM95ih-wjU4m-18" vertex="1">
          <mxGeometry x="45" y="330" width="10" height="60" as="geometry" />
        </mxCell>
        <mxCell id="RtVYyTiSSM95ih-wjU4m-21" value="draw" style="html=1;verticalAlign=bottom;endArrow=block;edgeStyle=elbowEdgeStyle;elbow=vertical;curved=0;rounded=0;" parent="1" target="RtVYyTiSSM95ih-wjU4m-19" edge="1">
          <mxGeometry x="0.0297" relative="1" as="geometry">
            <mxPoint x="150" y="390" as="sourcePoint" />
            <Array as="points">
              <mxPoint x="480" y="390" />
              <mxPoint x="330" y="370" />
              <mxPoint x="225" y="364.5" />
              <mxPoint x="185" y="334.5" />
            </Array>
            <mxPoint x="515" y="370" as="targetPoint" />
            <mxPoint as="offset" />
          </mxGeometry>
        </mxCell>
        <mxCell id="RtVYyTiSSM95ih-wjU4m-22" value="" style="html=1;verticalAlign=bottom;endArrow=open;dashed=1;endSize=8;edgeStyle=elbowEdgeStyle;elbow=vertical;curved=0;rounded=0;" parent="1" source="RtVYyTiSSM95ih-wjU4m-19" edge="1">
          <mxGeometry relative="1" as="geometry">
            <mxPoint x="150" y="400" as="targetPoint" />
            <Array as="points">
              <mxPoint x="550" y="400" />
              <mxPoint x="175" y="390" />
            </Array>
            <mxPoint x="515" y="390" as="sourcePoint" />
          </mxGeometry>
        </mxCell>
        <mxCell id="RtVYyTiSSM95ih-wjU4m-24" value="[windowOption==menu]" style="text;html=1;strokeColor=none;fillColor=none;align=center;verticalAlign=middle;whiteSpace=wrap;rounded=0;" parent="1" vertex="1">
          <mxGeometry x="40" y="370" width="60" height="30" as="geometry" />
        </mxCell>
        <mxCell id="RtVYyTiSSM95ih-wjU4m-25" value="update" style="html=1;verticalAlign=bottom;endArrow=block;edgeStyle=elbowEdgeStyle;elbow=vertical;curved=0;rounded=0;" parent="1" edge="1">
          <mxGeometry relative="1" as="geometry">
            <mxPoint x="150" y="180" as="sourcePoint" />
            <Array as="points">
              <mxPoint x="195" y="179.5" />
              <mxPoint x="235" y="189.5" />
              <mxPoint x="195" y="159.5" />
            </Array>
            <mxPoint x="290" y="179.5" as="targetPoint" />
          </mxGeometry>
        </mxCell>
        <mxCell id="RtVYyTiSSM95ih-wjU4m-26" value="" style="html=1;verticalAlign=bottom;endArrow=open;dashed=1;endSize=8;edgeStyle=elbowEdgeStyle;elbow=vertical;curved=0;rounded=0;" parent="1" edge="1">
          <mxGeometry relative="1" as="geometry">
            <mxPoint x="150" y="189.5" as="targetPoint" />
            <Array as="points">
              <mxPoint x="205" y="189.5" />
              <mxPoint x="175" y="209.5" />
            </Array>
            <mxPoint x="290" y="190" as="sourcePoint" />
          </mxGeometry>
        </mxCell>
        <mxCell id="RtVYyTiSSM95ih-wjU4m-29" value="update" style="html=1;verticalAlign=bottom;endArrow=block;edgeStyle=elbowEdgeStyle;elbow=vertical;curved=0;rounded=0;" parent="1" edge="1">
          <mxGeometry x="0.0403" relative="1" as="geometry">
            <mxPoint x="150" y="260" as="sourcePoint" />
            <Array as="points">
              <mxPoint x="370" y="260" />
              <mxPoint x="330" y="250" />
              <mxPoint x="225" y="244.5" />
              <mxPoint x="185" y="214.5" />
            </Array>
            <mxPoint x="405" y="260" as="targetPoint" />
            <mxPoint x="1" as="offset" />
          </mxGeometry>
        </mxCell>
        <mxCell id="RtVYyTiSSM95ih-wjU4m-30" value="" style="html=1;verticalAlign=bottom;endArrow=open;dashed=1;endSize=8;edgeStyle=elbowEdgeStyle;elbow=vertical;curved=0;rounded=0;" parent="1" edge="1">
          <mxGeometry relative="1" as="geometry">
            <mxPoint x="150" y="270" as="targetPoint" />
            <Array as="points">
              <mxPoint x="175" y="270" />
            </Array>
            <mxPoint x="410" y="270" as="sourcePoint" />
          </mxGeometry>
        </mxCell>
        <mxCell id="RtVYyTiSSM95ih-wjU4m-31" value="update" style="html=1;verticalAlign=bottom;endArrow=block;edgeStyle=elbowEdgeStyle;elbow=vertical;curved=0;rounded=0;" parent="1" edge="1">
          <mxGeometry x="0.0403" relative="1" as="geometry">
            <mxPoint x="150" y="340" as="sourcePoint" />
            <Array as="points">
              <mxPoint x="310" y="340" />
              <mxPoint x="350" y="330" />
              <mxPoint x="330" y="320" />
              <mxPoint x="225" y="314.5" />
              <mxPoint x="185" y="284.5" />
            </Array>
            <mxPoint x="515" y="340" as="targetPoint" />
            <mxPoint x="1" as="offset" />
          </mxGeometry>
        </mxCell>
        <mxCell id="RtVYyTiSSM95ih-wjU4m-32" value="" style="html=1;verticalAlign=bottom;endArrow=open;dashed=1;endSize=8;edgeStyle=elbowEdgeStyle;elbow=vertical;curved=0;rounded=0;" parent="1" edge="1">
          <mxGeometry relative="1" as="geometry">
            <mxPoint x="150" y="350" as="targetPoint" />
            <Array as="points">
              <mxPoint x="330" y="350" />
              <mxPoint x="350" y="360" />
              <mxPoint x="175" y="340" />
            </Array>
            <mxPoint x="515" y="350" as="sourcePoint" />
          </mxGeometry>
        </mxCell>
        <mxCell id="RtVYyTiSSM95ih-wjU4m-33" value="update" style="html=1;verticalAlign=bottom;endArrow=block;edgeStyle=elbowEdgeStyle;elbow=vertical;curved=0;rounded=0;" parent="1" edge="1">
          <mxGeometry x="0.0396" y="-10" relative="1" as="geometry">
            <mxPoint x="157.5" y="410" as="sourcePoint" />
            <Array as="points">
              <mxPoint x="487.5" y="410" />
              <mxPoint x="337.5" y="390" />
              <mxPoint x="232.5" y="384.5" />
              <mxPoint x="192.5" y="354.5" />
            </Array>
            <mxPoint x="662.5" y="410" as="targetPoint" />
            <mxPoint x="1" as="offset" />
          </mxGeometry>
        </mxCell>
        <mxCell id="RtVYyTiSSM95ih-wjU4m-34" value="" style="html=1;verticalAlign=bottom;endArrow=open;dashed=1;endSize=8;edgeStyle=elbowEdgeStyle;elbow=vertical;curved=0;rounded=0;" parent="1" source="RtVYyTiSSM95ih-wjU4m-19" edge="1">
          <mxGeometry relative="1" as="geometry">
            <mxPoint x="150" y="420" as="targetPoint" />
            <Array as="points" />
            <mxPoint x="290" y="420.5" as="sourcePoint" />
          </mxGeometry>
        </mxCell>
        <mxCell id="RtVYyTiSSM95ih-wjU4m-35" value="loop" style="shape=umlFrame;whiteSpace=wrap;html=1;pointerEvents=0;width=40;height=15;" parent="1" vertex="1">
          <mxGeometry x="-80" y="110" width="900" height="350" as="geometry" />
        </mxCell>
        <mxCell id="RtVYyTiSSM95ih-wjU4m-36" value="[while running == true]" style="text;html=1;strokeColor=none;fillColor=none;align=center;verticalAlign=middle;whiteSpace=wrap;rounded=0;" parent="1" vertex="1">
          <mxGeometry x="-40" y="110" width="170" height="20" as="geometry" />
        </mxCell>
        <mxCell id="JXOX3uz73Wwaf6WbtP9--2" value="loop" style="shape=umlFrame;whiteSpace=wrap;html=1;pointerEvents=0;width=40;height=15;" parent="1" vertex="1">
          <mxGeometry x="-80" y="110" width="900" height="350" as="geometry" />
        </mxCell>
        <mxCell id="JXOX3uz73Wwaf6WbtP9--3" value="alt" style="shape=umlFrame;whiteSpace=wrap;html=1;pointerEvents=0;" parent="1" vertex="1">
          <mxGeometry x="-70" y="130" width="860" height="310" as="geometry" />
        </mxCell>
        <mxCell id="JXOX3uz73Wwaf6WbtP9--4" value="[windowOption==game]" style="text;html=1;strokeColor=none;fillColor=none;align=center;verticalAlign=middle;whiteSpace=wrap;rounded=0;" parent="1" vertex="1">
          <mxGeometry x="50" y="165" width="50" height="30" as="geometry" />
        </mxCell>
        <mxCell id="JXOX3uz73Wwaf6WbtP9--5" value="[windowOption==end]" style="text;html=1;strokeColor=none;fillColor=none;align=center;verticalAlign=middle;whiteSpace=wrap;rounded=0;" parent="1" vertex="1">
          <mxGeometry x="40" y="225" width="60" height="30" as="geometry" />
        </mxCell>
        <mxCell id="qFWBdqJI85hizo8IoVQo-1" value="User" style="shape=umlActor;verticalLabelPosition=bottom;verticalAlign=top;html=1;outlineConnect=0;" vertex="1" parent="1">
          <mxGeometry x="-30" y="30" width="30" height="60" as="geometry" />
        </mxCell>
        <mxCell id="qFWBdqJI85hizo8IoVQo-2" value="" style="html=1;verticalAlign=bottom;endArrow=open;dashed=1;endSize=8;edgeStyle=elbowEdgeStyle;elbow=vertical;curved=0;rounded=0;" edge="1" parent="1">
          <mxGeometry relative="1" as="geometry">
            <mxPoint y="490" as="targetPoint" />
            <Array as="points">
              <mxPoint y="490" />
              <mxPoint x="45" y="490" />
            </Array>
            <mxPoint x="150" y="490" as="sourcePoint" />
          </mxGeometry>
        </mxCell>
      </root>
    </mxGraphModel>
  </diagram>
</mxfile>
